<mxfile host="app.diagrams.net" modified="2023-06-12T13:36:44.733Z" agent="Mozilla/5.0 (Windows NT 10.0; Win64; x64) AppleWebKit/537.36 (KHTML, like Gecko) Chrome/114.0.0.0 Safari/537.36" etag="abGsfHykQS9ChdsABL7H" version="21.3.8" type="device">
  <diagram name="Page-1" id="1lIyzBnSoxcRoaJGURCU">
    <mxGraphModel dx="1434" dy="708" grid="1" gridSize="10" guides="1" tooltips="1" connect="1" arrows="1" fold="1" page="1" pageScale="1" pageWidth="850" pageHeight="1100" math="0" shadow="0">
      <root>
        <mxCell id="0" />
        <mxCell id="1" parent="0" />
        <mxCell id="DqRpoxztphLa7JPKAt8U-1" value="Windows OS lietotājs" style="shape=umlActor;verticalLabelPosition=bottom;verticalAlign=top;html=1;outlineConnect=0;" parent="1" vertex="1">
          <mxGeometry x="60" y="420" width="30" height="60" as="geometry" />
        </mxCell>
        <mxCell id="DqRpoxztphLa7JPKAt8U-5" value="" style="endArrow=none;html=1;rounded=0;entryX=0.011;entryY=0.736;entryDx=0;entryDy=0;entryPerimeter=0;" parent="1" edge="1">
          <mxGeometry width="50" height="50" relative="1" as="geometry">
            <mxPoint x="90" y="440" as="sourcePoint" />
            <mxPoint x="241.31999999999994" y="378.8800000000001" as="targetPoint" />
          </mxGeometry>
        </mxCell>
        <mxCell id="DqRpoxztphLa7JPKAt8U-26" value="Apturēt Programmu poga" style="ellipse;whiteSpace=wrap;html=1;" parent="1" vertex="1">
          <mxGeometry x="200" y="540" width="130" height="80" as="geometry" />
        </mxCell>
        <mxCell id="DqRpoxztphLa7JPKAt8U-33" value="Startēt SakumaEkrans.java" style="ellipse;whiteSpace=wrap;html=1;" parent="1" vertex="1">
          <mxGeometry x="240" y="330" width="120" height="60" as="geometry" />
        </mxCell>
        <mxCell id="DqRpoxztphLa7JPKAt8U-35" value="Apturēt SakumaEkrans.java&lt;br&gt;poga" style="ellipse;whiteSpace=wrap;html=1;" parent="1" vertex="1">
          <mxGeometry x="370" y="215" width="120" height="60" as="geometry" />
        </mxCell>
        <mxCell id="DqRpoxztphLa7JPKAt8U-36" value="Noteikumi poga" style="ellipse;whiteSpace=wrap;html=1;" parent="1" vertex="1">
          <mxGeometry x="230" y="215" width="110" height="55" as="geometry" />
        </mxCell>
        <mxCell id="DqRpoxztphLa7JPKAt8U-37" value="Sākt testu poga" style="ellipse;whiteSpace=wrap;html=1;" parent="1" vertex="1">
          <mxGeometry x="110" y="250" width="110" height="55" as="geometry" />
        </mxCell>
        <mxCell id="DqRpoxztphLa7JPKAt8U-40" value="" style="endArrow=none;html=1;rounded=0;entryX=0.5;entryY=1;entryDx=0;entryDy=0;exitX=0.5;exitY=0;exitDx=0;exitDy=0;" parent="1" source="DqRpoxztphLa7JPKAt8U-33" target="DqRpoxztphLa7JPKAt8U-36" edge="1">
          <mxGeometry width="50" height="50" relative="1" as="geometry">
            <mxPoint x="290" y="290" as="sourcePoint" />
            <mxPoint x="320" y="290" as="targetPoint" />
          </mxGeometry>
        </mxCell>
        <mxCell id="DqRpoxztphLa7JPKAt8U-41" value="" style="endArrow=none;html=1;rounded=0;entryX=0.5;entryY=1;entryDx=0;entryDy=0;exitX=1;exitY=0;exitDx=0;exitDy=0;" parent="1" source="DqRpoxztphLa7JPKAt8U-33" target="DqRpoxztphLa7JPKAt8U-35" edge="1">
          <mxGeometry width="50" height="50" relative="1" as="geometry">
            <mxPoint x="340" y="330" as="sourcePoint" />
            <mxPoint x="315" y="270" as="targetPoint" />
          </mxGeometry>
        </mxCell>
        <mxCell id="DqRpoxztphLa7JPKAt8U-42" value="" style="endArrow=none;html=1;rounded=0;entryX=1;entryY=1;entryDx=0;entryDy=0;exitX=0;exitY=0;exitDx=0;exitDy=0;" parent="1" source="DqRpoxztphLa7JPKAt8U-33" target="DqRpoxztphLa7JPKAt8U-37" edge="1">
          <mxGeometry width="50" height="50" relative="1" as="geometry">
            <mxPoint x="225" y="350" as="sourcePoint" />
            <mxPoint x="200" y="290" as="targetPoint" />
          </mxGeometry>
        </mxCell>
        <mxCell id="DqRpoxztphLa7JPKAt8U-44" value="Jautājuma atbildes ievade" style="ellipse;whiteSpace=wrap;html=1;" parent="1" vertex="1">
          <mxGeometry x="420" y="340" width="120" height="60" as="geometry" />
        </mxCell>
        <mxCell id="DqRpoxztphLa7JPKAt8U-46" value="" style="endArrow=none;html=1;rounded=0;entryX=0;entryY=0.5;entryDx=0;entryDy=0;exitX=1;exitY=0.5;exitDx=0;exitDy=0;" parent="1" source="DqRpoxztphLa7JPKAt8U-33" target="DqRpoxztphLa7JPKAt8U-44" edge="1">
          <mxGeometry width="50" height="50" relative="1" as="geometry">
            <mxPoint x="368" y="364" as="sourcePoint" />
            <mxPoint x="425" y="305" as="targetPoint" />
          </mxGeometry>
        </mxCell>
        <mxCell id="DqRpoxztphLa7JPKAt8U-48" value="Beigu ekrāns" style="ellipse;whiteSpace=wrap;html=1;" parent="1" vertex="1">
          <mxGeometry x="340" y="430" width="120" height="60" as="geometry" />
        </mxCell>
        <mxCell id="DqRpoxztphLa7JPKAt8U-49" value="" style="endArrow=none;html=1;rounded=0;entryX=0;entryY=0;entryDx=0;entryDy=0;exitX=0.782;exitY=0.964;exitDx=0;exitDy=0;exitPerimeter=0;" parent="1" source="DqRpoxztphLa7JPKAt8U-33" target="DqRpoxztphLa7JPKAt8U-48" edge="1">
          <mxGeometry width="50" height="50" relative="1" as="geometry">
            <mxPoint x="340" y="410" as="sourcePoint" />
            <mxPoint x="400" y="420" as="targetPoint" />
          </mxGeometry>
        </mxCell>
        <mxCell id="DqRpoxztphLa7JPKAt8U-54" value="Uz sākuma ekrānu poga" style="ellipse;whiteSpace=wrap;html=1;" parent="1" vertex="1">
          <mxGeometry x="450" y="540" width="120" height="60" as="geometry" />
        </mxCell>
        <mxCell id="DqRpoxztphLa7JPKAt8U-55" value="" style="endArrow=none;html=1;rounded=0;entryX=1;entryY=0;entryDx=0;entryDy=0;exitX=0.5;exitY=1;exitDx=0;exitDy=0;" parent="1" source="DqRpoxztphLa7JPKAt8U-48" target="DqRpoxztphLa7JPKAt8U-26" edge="1">
          <mxGeometry width="50" height="50" relative="1" as="geometry">
            <mxPoint x="316" y="479" as="sourcePoint" />
            <mxPoint x="340" y="530" as="targetPoint" />
          </mxGeometry>
        </mxCell>
        <mxCell id="DqRpoxztphLa7JPKAt8U-56" value="" style="endArrow=none;html=1;rounded=0;entryX=0.5;entryY=0;entryDx=0;entryDy=0;exitX=0.541;exitY=1.01;exitDx=0;exitDy=0;exitPerimeter=0;" parent="1" source="DqRpoxztphLa7JPKAt8U-48" target="DqRpoxztphLa7JPKAt8U-54" edge="1">
          <mxGeometry width="50" height="50" relative="1" as="geometry">
            <mxPoint x="401" y="500" as="sourcePoint" />
            <mxPoint x="425" y="551" as="targetPoint" />
          </mxGeometry>
        </mxCell>
        <mxCell id="VbYfs2QCiZGxIskrbiUl-3" value="Turpināt poga" style="ellipse;whiteSpace=wrap;html=1;" vertex="1" parent="1">
          <mxGeometry x="620" y="340" width="120" height="60" as="geometry" />
        </mxCell>
        <mxCell id="VbYfs2QCiZGxIskrbiUl-4" value="" style="endArrow=none;html=1;rounded=0;entryX=0;entryY=0.5;entryDx=0;entryDy=0;exitX=1;exitY=0.5;exitDx=0;exitDy=0;" edge="1" parent="1" source="DqRpoxztphLa7JPKAt8U-44" target="VbYfs2QCiZGxIskrbiUl-3">
          <mxGeometry width="50" height="50" relative="1" as="geometry">
            <mxPoint x="560" y="390" as="sourcePoint" />
            <mxPoint x="620" y="400" as="targetPoint" />
          </mxGeometry>
        </mxCell>
      </root>
    </mxGraphModel>
  </diagram>
</mxfile>
